Coordinates
version=1
nRows=29
nColumns=22
inDegrees=yes

Units are S.I. units (second, meters, Newtons, ...)
If the header above contains a line with 'inDegrees', this indicates whether rotational values are in degrees (yes) or radians (no).

endheader
time	pelvis_tilt	pelvis_list	pelvis_rotation	pelvis_tx	pelvis_ty	pelvis_tz	hip_flexion_r	hip_adduction_r	hip_rotation_r	knee_angle_r	ankle_angle_r	subtalar_angle_r	hip_flexion_l	hip_adduction_l	hip_rotation_l	knee_angle_l	ankle_angle_l	subtalar_angle_l	lumbar_extension	lumbar_bending	lumbar_rotation
      1.52000000	      5.60983056	     -3.59673002	      1.34608213	     -0.67942741	      0.95492616	      0.58864541	     -4.79970471	      3.90602899	    -11.14390593	     -9.26397564	      8.68823302	      1.41081485	     -2.26627675	     -4.55521425	    -12.84203093	    -15.88844237	     20.40546383	     -7.25615304	    -12.46909647	      4.41347051	     -9.90455263
      1.53000000	      5.62425378	     -3.59131593	      1.36022277	     -0.67928767	      0.95491075	      0.58860483	     -4.79394828	      3.90208172	    -11.12338985	     -9.32189102	      8.69813068	      1.40049724	     -2.27976604	     -4.54943870	    -12.82518184	    -15.90603635	     20.40940199	     -7.26509908	    -12.47493814	      4.40519261	     -9.93303001
      1.54000000	      5.63791314	     -3.56548501	      1.37760281	     -0.67913846	      0.95488654	      0.58852569	     -4.77877513	      3.86791834	    -11.15905458	     -9.40113281	      8.78732828	      1.35577125	     -2.29492709	     -4.51542689	    -12.78214784	    -15.91999883	     20.43974823	     -7.30846229	    -12.47871251	      4.37994454	     -9.96333876
      1.55000000	      5.65143850	     -3.56308215	      1.38962626	     -0.67899652	      0.95487500	      0.58850800	     -4.77384409	      3.86803965	    -11.13909992	     -9.45551508	      8.79312871	      1.34661696	     -2.30691120	     -4.51482644	    -12.76670233	    -15.94042952	     20.44349046	     -7.31648877	    -12.48563609	      4.37332561	     -9.99035048
      1.56000000	      5.66665280	     -3.55712572	      1.40066875	     -0.67884837	      0.95486476	      0.58849617	     -4.76944120	      3.86273745	    -11.13077917	     -9.51531360	      8.81436932	      1.33569304	     -2.31985526	     -4.51077320	    -12.74715389	    -15.96460457	     20.45821419	     -7.32490385	    -12.49587112	      4.36323101	    -10.01786392
      1.57000000	      5.68306222	     -3.54214676	      1.41878266	     -0.67866796	      0.95484831	      0.58847133	     -4.76269673	      3.84323786	    -11.18470650	     -9.58816872	      8.90277887	      1.30062536	     -2.33886939	     -4.49581764	    -12.71775158	    -15.98206067	     20.49689916	     -7.35566102	    -12.50205547	      4.34457682	    -10.04887787
      1.58000000	      5.69758084	     -3.53416163	      1.43073841	     -0.67847700	      0.95483772	      0.58847273	     -4.75826760	      3.83399609	    -11.20413533	     -9.65367768	      8.94418635	      1.26904571	     -2.35990045	     -4.48920558	    -12.69722750	    -15.99380531	     20.51122144	     -7.38083001	    -12.50795769	      4.33070386	    -10.07818926
      1.59000000	      5.70907126	     -3.53398332	      1.43424647	     -0.67825667	      0.95482324	      0.58850809	     -4.75775889	      3.83635438	    -11.19369899	     -9.70751066	      8.95251131	      1.26264512	     -2.38279194	     -4.49318933	    -12.69286890	    -16.00178316	     20.51964141	     -7.38317588	    -12.50744963	      4.32500864	    -10.10736260
      1.60000000	      5.73211891	     -3.52177507	      1.43682788	     -0.67801023	      0.95481824	      0.58854668	     -4.75706722	      3.82014148	    -11.22897729	     -9.79129098	      9.01278729	      1.23878984	     -2.42524003	     -4.48340341	    -12.69165642	    -16.00150784	     20.55177303	     -7.38694295	    -12.52094285	      4.30340914	    -10.12659665
      1.61000000	      5.74347472	     -3.52116023	      1.44005786	     -0.67774806	      0.95479933	      0.58859903	     -4.75270242	      3.82168530	    -11.21628482	     -9.85742318	      9.02196065	      1.23030363	     -2.45503727	     -4.48778173	    -12.69190757	    -16.00150675	     20.55859861	     -7.38724379	    -12.52096738	      4.29497756	    -10.16091441
      1.62000000	      5.76780542	     -3.49894618	      1.43111158	     -0.67745449	      0.95478892	      0.58863774	     -4.74230428	      3.78906021	    -11.25680673	     -9.97047949	      9.09233396	      1.19067177	     -2.51070460	     -4.46331075	    -12.70017340	    -15.98783387	     20.58853005	     -7.38537661	    -12.53660352	      4.26659134	    -10.16908722
      1.63000000	      5.77960945	     -3.49665010	      1.43370029	     -0.67715862	      0.95476617	      0.58869039	     -4.73272181	      3.78849131	    -11.24104233	    -10.05169437	      9.10198354	      1.17724986	     -2.54419759	     -4.46563859	    -12.70043644	    -15.98606645	     20.59518595	     -7.38468697	    -12.54034992	      4.26120184	    -10.20820752
      1.64000000	      5.80037089	     -3.47022818	      1.42236334	     -0.67683864	      0.95474705	      0.58871785	     -4.70932378	      3.74829461	    -11.29145347	    -10.18467365	      9.17443859	      1.12204275	     -2.59834372	     -4.43454831	    -12.70503190	    -15.97215702	     20.62791032	     -7.37872564	    -12.55732172	      4.23552760	    -10.21220211
      1.65000000	      5.80989461	     -3.46809810	      1.42719735	     -0.67651925	      0.95472076	      0.58877862	     -4.69585119	      3.75000026	    -11.27623141	    -10.27085698	      9.18606299	      1.10445499	     -2.62863219	     -4.43838766	    -12.69939318	    -15.97330540	     20.63620172	     -7.37642573	    -12.56551030	      4.23295403	    -10.25433876
      1.66000000	      5.82065206	     -3.44762506	      1.42585329	     -0.67616894	      0.95468370	      0.58880932	     -4.66687303	      3.71963447	    -11.33718907	    -10.39627915	      9.26604823	      1.03958681	     -2.66556075	     -4.41705428	    -12.68525291	    -15.97233410	     20.68420344	     -7.36055778	    -12.57481150	      4.21741844	    -10.26437200
      1.67000000	      5.82513310	     -3.44729997	      1.43130092	     -0.67582153	      0.95465165	      0.58887870	     -4.65279460	      3.72493349	    -11.32126954	    -10.47637082	      9.28167746	      1.02118417	     -2.68883782	     -4.42426609	    -12.67168575	    -15.97920133	     20.69876295	     -7.35346291	    -12.58294713	      4.22175350	    -10.30693133
      1.68000000	      5.82971993	     -3.44516479	      1.43511018	     -0.67546517	      0.95461109	      0.58894283	     -4.63004107	      3.72412379	    -11.32687884	    -10.57668742	      9.32547507	      0.99401329	     -2.71195164	     -4.42792770	    -12.64380252	    -15.98980721	     20.74708587	     -7.33216516	    -12.59545960	      4.23013093	    -10.34016267
      1.69000000	      5.81580241	     -3.43450931	      1.45269788	     -0.67505752	      0.95452496	      0.58898896	     -4.59308328	      3.71071215	    -11.40105753	    -10.67518441	      9.45645814	      0.92420217	     -2.70907328	     -4.42567542	    -12.60323786	    -16.01404015	     20.84773980	     -7.26393821	    -12.57853410	      4.23011587	    -10.36421754
      1.70000000	      5.81601881	     -3.43230594	      1.45786938	     -0.67467940	      0.95448290	      0.58905827	     -4.57096881	      3.71169857	    -11.37665389	    -10.77004979	      9.48078986	      0.90690549	     -2.72358191	     -4.43276301	    -12.57390572	    -16.03427860	     20.87907345	     -7.23652326	    -12.59098418	      4.24804480	    -10.40942023
      1.71000000	      5.79148772	     -3.42061324	      1.47410257	     -0.67426800	      0.95436949	      0.58911166	     -4.50624043	      3.69476272	    -11.42973171	    -10.90319818	      9.63376703	      0.85541157	     -2.70238634	     -4.43238331	    -12.51702729	    -16.07616383	     21.02047723	     -7.10743868	    -12.56943627	      4.25699539	    -10.43566113
      1.72000000	      5.76477307	     -3.40605086	      1.48154202	     -0.67387762	      0.95425649	      0.58918080	     -4.42192190	      3.67363894	    -11.43859877	    -11.06895652	      9.75666138	      0.80924650	     -2.66874880	     -4.43279940	    -12.47299566	    -16.14030566	     21.11721202	     -6.95802591	    -12.55580454	      4.26840025	    -10.47282604
      1.73000000	      5.71468948	     -3.39309080	      1.48133604	     -0.67346837	      0.95410191	      0.58927971	     -4.29783478	      3.65200655	    -11.43440295	    -11.26307704	      9.89549648	      0.74366857	     -2.60021914	     -4.44395898	    -12.46111896	    -16.23048195	     21.18777702	     -6.71691310	    -12.51393739	      4.28643016	    -10.52898106
      1.74000000	      5.71733098	     -3.36619210	      1.46669235	     -0.67301952	      0.95402759	      0.58940120	     -4.23253428	      3.61770879	    -11.38717263	    -11.46126638	      9.99843104	      0.72817736	     -2.61090329	     -4.43149884	    -12.40052497	    -16.29244420	     21.33954525	     -6.60106320	    -12.54128920	      4.28760206	    -10.53272344
      1.75000000	      5.67236262	     -3.34062661	      1.43492853	     -0.67254510	      0.95385572	      0.58956588	     -4.08174870	      3.57650616	    -11.35314249	    -11.72843748	     10.21102491	      0.67517170	     -2.54893558	     -4.43485160	    -12.40889513	    -16.40898278	     21.45943432	     -6.32962936	    -12.51471267	      4.29873294	    -10.58019819
      1.76000000	      5.65218040	     -3.30976681	      1.39365702	     -0.67203283	      0.95371649	      0.58977515	     -3.95706393	      3.53442754	    -11.28302847	    -12.00107636	     10.37882104	      0.61882174	     -2.51822776	     -4.43235173	    -12.39628849	    -16.52811987	     21.63085574	     -6.08000499	    -12.52167800	      4.30095405	    -10.59375855
      1.77000000	      5.63177015	     -3.27765834	      1.33604792	     -0.67146872	      0.95356661	      0.59004314	     -3.82548679	      3.49168286	    -11.20252082	    -12.29079679	     10.55977135	      0.54976171	     -2.49129931	     -4.43218596	    -12.40202339	    -16.65432318	     21.82252717	     -5.81884087	    -12.53015541	      4.30158289	    -10.60088000
      1.78000000	      5.63936512	     -3.23597885	      1.26892685	     -0.67086877	      0.95345534	      0.59036090	     -3.72478845	      3.44235846	    -11.11262937	    -12.58156286	     10.69488035	      0.50289304	     -2.50716048	     -4.41630244	    -12.37349008	    -16.76550446	     22.07334091	     -5.63884213	    -12.57792207	      4.28823598	    -10.58222193
      1.79000000	      5.57323841	     -3.21958640	      1.18705315	     -0.67026122	      0.95320095	      0.59075200	     -3.51432326	      3.42105468	    -10.98659698	    -12.92797035	     10.90868233	      0.29314755	     -2.41105914	     -4.44921202	    -12.46021977	    -16.94451220	     22.26428585	     -5.16430725	    -12.54111488	      4.30826382	    -10.58698552
      1.80000000	      5.60038632	     -3.18030556	      1.09769710	     -0.66957320	      0.95309143	      0.59116992	     -3.42318308	      3.37783973	    -10.87953291	    -13.24747477	     11.08107982	      0.24671252	     -2.46432372	     -4.43883376	    -12.48154973	    -17.04396972	     22.55768872	     -5.02855186	    -12.61663954	      4.30075893	    -10.56979387
